<svg width="122" height="14" viewBox="0 0 122 14" fill="none" xmlns="http://www.w3.org/2000/svg">
<path d="M9.4 11.1V13.82H0.2V1.16H3.4V11.1H9.4ZM14.8055 13.82H11.6055V0.359999H14.8055V13.82ZM21.7109 3.98C22.9909 3.98 24.0243 4.11333 24.8109 4.38C25.5976 4.64667 26.1709 5.14 26.5309 5.86C26.9043 6.56667 27.0909 7.59333 27.0909 8.94V13.82H24.1909L24.0909 12.9H24.0309C23.7776 13.2333 23.3843 13.5 22.8509 13.7C22.3176 13.9 21.6243 14 20.7709 14C18.4643 14 17.3109 12.92 17.3109 10.76C17.3109 9.84 17.6109 9.12 18.2109 8.6C18.8243 8.06667 19.7843 7.8 21.0909 7.8H24.0509C23.9576 7.24 23.7176 6.86667 23.3309 6.68C22.9443 6.48 22.2843 6.38 21.3509 6.38C20.7643 6.38 20.1843 6.42667 19.6109 6.52C19.0509 6.6 18.5576 6.69333 18.1309 6.8L18.0709 6.76L18.0909 4.44C18.3576 4.36 18.6976 4.28667 19.1109 4.22C19.5243 4.14 19.9576 4.08 20.4109 4.04C20.8776 4 21.3109 3.98 21.7109 3.98ZM21.5909 11.64C22.4176 11.64 23.0376 11.54 23.4509 11.34C23.8643 11.1267 24.0776 10.7933 24.0909 10.34V9.84H21.8309C21.2443 9.84 20.8309 9.92667 20.5909 10.1C20.3643 10.26 20.2509 10.48 20.2509 10.76C20.2509 11.0933 20.3709 11.3267 20.6109 11.46C20.8509 11.58 21.1776 11.64 21.5909 11.64ZM42.0828 3.98C43.0695 3.98 43.8495 4.30667 44.4228 4.96C45.0095 5.61333 45.3028 6.74667 45.3028 8.36V13.82H42.1028L42.0828 8.76C42.0828 8.10667 41.9828 7.63333 41.7828 7.34C41.5961 7.04667 41.2228 6.9 40.6628 6.9C40.1028 6.9 39.7228 7.04667 39.5228 7.34C39.3361 7.63333 39.2428 8.10667 39.2428 8.76V13.82H36.0428L36.0228 8.76C36.0228 8.10667 35.9228 7.63333 35.7228 7.34C35.5361 7.04667 35.1628 6.9 34.6028 6.9C34.0428 6.9 33.6628 7.04667 33.4628 7.34C33.2761 7.63333 33.1828 8.10667 33.1828 8.76V13.82H29.9828V4.08H33.0228L33.1828 5.86H33.2428C33.4161 5.27333 33.7161 4.81333 34.1428 4.48C34.5828 4.14667 35.2028 3.98 36.0028 3.98C36.8028 3.98 37.4295 4.14667 37.8828 4.48C38.3495 4.81333 38.6495 5.27333 38.7828 5.86H38.8428C39.0161 5.26 39.3495 4.8 39.8428 4.48C40.3495 4.14667 41.0961 3.98 42.0828 3.98ZM52.0023 3.98C53.2823 3.98 54.3157 4.11333 55.1023 4.38C55.889 4.64667 56.4623 5.14 56.8223 5.86C57.1957 6.56667 57.3823 7.59333 57.3823 8.94V13.82H54.4823L54.3823 12.9H54.3223C54.069 13.2333 53.6757 13.5 53.1423 13.7C52.609 13.9 51.9157 14 51.0623 14C48.7557 14 47.6023 12.92 47.6023 10.76C47.6023 9.84 47.9023 9.12 48.5023 8.6C49.1157 8.06667 50.0757 7.8 51.3823 7.8H54.3423C54.249 7.24 54.009 6.86667 53.6223 6.68C53.2357 6.48 52.5757 6.38 51.6423 6.38C51.0557 6.38 50.4757 6.42667 49.9023 6.52C49.3423 6.6 48.849 6.69333 48.4223 6.8L48.3623 6.76L48.3823 4.44C48.649 4.36 48.989 4.28667 49.4023 4.22C49.8157 4.14 50.249 4.08 50.7023 4.04C51.169 4 51.6023 3.98 52.0023 3.98ZM51.8823 11.64C52.709 11.64 53.329 11.54 53.7423 11.34C54.1557 11.1267 54.369 10.7933 54.3823 10.34V9.84H52.1223C51.5357 9.84 51.1223 9.92667 50.8823 10.1C50.6557 10.26 50.5423 10.48 50.5423 10.76C50.5423 11.0933 50.6623 11.3267 50.9023 11.46C51.1423 11.58 51.469 11.64 51.8823 11.64ZM68.3742 10.08C68.3742 9.64 68.3942 9.24 68.4342 8.88L68.3942 8.82C68.0209 8.87333 67.6142 8.91333 67.1742 8.94C66.7342 8.95333 66.3276 8.95333 65.9542 8.94V6.34L71.1742 6.32V13.12C70.5609 13.4 69.8609 13.62 69.0742 13.78C68.3009 13.9267 67.3142 14 66.1142 14C64.5142 14 63.2609 13.7867 62.3542 13.36C61.4476 12.92 60.8076 12.22 60.4342 11.26C60.0609 10.2867 59.8742 8.99333 59.8742 7.38C59.8742 6.07333 60.0209 5 60.3142 4.16C60.6209 3.32 61.0609 2.67333 61.6342 2.22C62.2209 1.75333 62.9342 1.43333 63.7742 1.26C64.6142 1.07333 65.5742 0.98 66.6542 0.98C67.2942 0.98 67.9342 1.00667 68.5742 1.06C69.2276 1.11333 69.8742 1.21333 70.5142 1.36V4L70.4542 4.04C69.8942 3.90667 69.3342 3.81333 68.7742 3.76C68.2276 3.70667 67.6742 3.68 67.1142 3.68C66.3009 3.68 65.5876 3.76667 64.9742 3.94C64.3742 4.1 63.9076 4.44 63.5742 4.96C63.2409 5.48 63.0742 6.28667 63.0742 7.38C63.0742 8.46 63.1609 9.28667 63.3342 9.86C63.5209 10.42 63.8609 10.8067 64.3542 11.02C64.8609 11.22 65.5809 11.32 66.5142 11.32C66.6342 11.32 66.8209 11.32 67.0742 11.32C67.3276 11.3067 67.5809 11.2933 67.8342 11.28C68.0876 11.2667 68.2676 11.2467 68.3742 11.22V10.08ZM82.7597 13.5C82.3864 13.6333 81.8664 13.7533 81.1997 13.86C80.5464 13.9533 79.7664 14 78.8597 14C77.713 14 76.733 13.8533 75.9197 13.56C75.1197 13.2533 74.513 12.74 74.0997 12.02C73.6864 11.2867 73.4797 10.2733 73.4797 8.98C73.4797 7.22 73.8797 5.94667 74.6797 5.16C75.493 4.37333 76.7464 3.98 78.4397 3.98C79.653 3.98 80.6064 4.15333 81.2997 4.5C82.0064 4.84667 82.5064 5.34 82.7997 5.98C83.1064 6.60667 83.2597 7.35333 83.2597 8.22C83.2597 8.47333 83.2464 8.74667 83.2197 9.04C83.2064 9.33333 83.173 9.62 83.1197 9.9L83.0397 9.98H76.4597C76.553 10.5667 76.8264 10.9533 77.2797 11.14C77.7464 11.3267 78.4997 11.42 79.5397 11.42C80.233 11.42 80.8064 11.4067 81.2597 11.38C81.7264 11.34 82.1997 11.2867 82.6797 11.22L82.7597 11.28V13.5ZM80.4797 7.88C80.4797 7.56 80.4264 7.28667 80.3197 7.06C80.2264 6.82 80.033 6.64 79.7397 6.52C79.4464 6.38667 79.013 6.32 78.4397 6.32C77.5997 6.32 77.0464 6.46667 76.7797 6.76C76.5264 7.04 76.3997 7.41333 76.3997 7.88H80.4797ZM88.9609 13.82H85.7609V4.08H88.8009L88.9609 5.86H89.0209C89.2076 5.26 89.5409 4.8 90.0209 4.48C90.5009 4.14667 91.1676 3.98 92.0209 3.98C93.1809 3.98 94.0343 4.30667 94.5809 4.96C95.1409 5.61333 95.4209 6.74667 95.4209 8.36V13.82H92.2209L92.2009 8.98C92.2009 8.23333 92.0876 7.7 91.8609 7.38C91.6343 7.06 91.2076 6.9 90.5809 6.9C89.9943 6.9 89.5809 7.04667 89.3409 7.34C89.1009 7.62 88.9743 8.10667 88.9609 8.8V13.82ZM101.776 10.98C101.803 11.2733 101.823 11.5267 101.836 11.74C101.85 11.94 101.856 12.1533 101.856 12.38C101.856 12.5933 101.85 12.8133 101.836 13.04C101.823 13.2533 101.803 13.5 101.776 13.78C101.443 13.8333 101.11 13.88 100.776 13.92C100.443 13.96 100.11 13.98 99.7764 13.98C99.4564 13.98 99.1364 13.96 98.8164 13.92C98.4964 13.88 98.1697 13.8333 97.8364 13.78C97.7964 13.5133 97.7697 13.2733 97.7564 13.06C97.7431 12.8333 97.7364 12.6133 97.7364 12.4C97.7364 12.2 97.7431 11.9867 97.7564 11.76C97.7697 11.5333 97.7964 11.2733 97.8364 10.98C98.5031 10.86 99.1631 10.8 99.8164 10.8C100.47 10.8 101.123 10.86 101.776 10.98ZM115.973 13.76V13.82H112.573C112.479 13.5 112.366 13.1333 112.233 12.72C112.113 12.3067 111.979 11.8667 111.833 11.4H107.513C107.246 12.3333 106.999 13.14 106.773 13.82H103.373V13.78L107.473 1.16H111.873L115.973 13.76ZM109.633 3.44C109.499 4.12 109.306 4.94667 109.053 5.92C108.799 6.89333 108.533 7.88667 108.253 8.9H111.113C110.819 7.88667 110.546 6.89333 110.293 5.92C110.039 4.94667 109.846 4.12 109.713 3.44H109.633ZM121.2 0.459999C121.24 0.939999 121.26 1.34 121.26 1.66C121.26 1.84667 121.254 2.04 121.24 2.24C121.24 2.42667 121.227 2.64 121.2 2.88C120.92 2.93333 120.647 2.97333 120.38 3C120.114 3.02667 119.847 3.04 119.58 3.04C119.327 3.04 119.067 3.02667 118.8 3C118.547 2.97333 118.287 2.93333 118.02 2.88C117.994 2.65333 117.974 2.44667 117.96 2.26C117.947 2.06 117.94 1.86667 117.94 1.68C117.94 1.50667 117.947 1.32 117.96 1.12C117.974 0.919999 117.994 0.699999 118.02 0.459999C118.287 0.393332 118.554 0.353333 118.82 0.339999C119.1 0.313332 119.374 0.299999 119.64 0.299999C119.894 0.299999 120.147 0.313332 120.4 0.339999C120.667 0.353333 120.934 0.393332 121.2 0.459999ZM121.2 13.82H118V4.08H121.2V13.82Z" fill="#202334"/>
</svg>
