<svg width="116" height="28" viewBox="0 0 116 28" fill="none" xmlns="http://www.w3.org/2000/svg">
<path d="M10.4 18.1V20.82H1.2V8.16H4.4V18.1H10.4ZM15.0055 20.82H11.8055V7.36H15.0055V20.82ZM21.1109 10.98C22.3909 10.98 23.4243 11.1133 24.2109 11.38C24.9976 11.6467 25.5709 12.14 25.9309 12.86C26.3043 13.5667 26.4909 14.5933 26.4909 15.94V20.82H23.5909L23.4909 19.9H23.4309C23.1776 20.2333 22.7843 20.5 22.2509 20.7C21.7176 20.9 21.0243 21 20.1709 21C17.8643 21 16.7109 19.92 16.7109 17.76C16.7109 16.84 17.0109 16.12 17.6109 15.6C18.2243 15.0667 19.1843 14.8 20.4909 14.8H23.4509C23.3576 14.24 23.1176 13.8667 22.7309 13.68C22.3443 13.48 21.6843 13.38 20.7509 13.38C20.1643 13.38 19.5843 13.4267 19.0109 13.52C18.4509 13.6 17.9576 13.6933 17.5309 13.8L17.4709 13.76L17.4909 11.44C17.7576 11.36 18.0976 11.2867 18.5109 11.22C18.9243 11.14 19.3576 11.08 19.8109 11.04C20.2776 11 20.7109 10.98 21.1109 10.98ZM20.9909 18.64C21.8176 18.64 22.4376 18.54 22.8509 18.34C23.2643 18.1267 23.4776 17.7933 23.4909 17.34V16.84H21.2309C20.6443 16.84 20.2309 16.9267 19.9909 17.1C19.7643 17.26 19.6509 17.48 19.6509 17.76C19.6509 18.0933 19.7709 18.3267 20.0109 18.46C20.2509 18.58 20.5776 18.64 20.9909 18.64ZM40.6828 10.98C41.6695 10.98 42.4495 11.3067 43.0228 11.96C43.6095 12.6133 43.9028 13.7467 43.9028 15.36V20.82H40.7028L40.6828 15.76C40.6828 15.1067 40.5828 14.6333 40.3828 14.34C40.1961 14.0467 39.8228 13.9 39.2628 13.9C38.7028 13.9 38.3228 14.0467 38.1228 14.34C37.9361 14.6333 37.8428 15.1067 37.8428 15.76V20.82H34.6428L34.6228 15.76C34.6228 15.1067 34.5228 14.6333 34.3228 14.34C34.1361 14.0467 33.7628 13.9 33.2028 13.9C32.6428 13.9 32.2628 14.0467 32.0628 14.34C31.8761 14.6333 31.7828 15.1067 31.7828 15.76V20.82H28.5828V11.08H31.6228L31.7828 12.86H31.8428C32.0161 12.2733 32.3161 11.8133 32.7428 11.48C33.1828 11.1467 33.8028 10.98 34.6028 10.98C35.4028 10.98 36.0295 11.1467 36.4828 11.48C36.9495 11.8133 37.2495 12.2733 37.3828 12.86H37.4428C37.6161 12.26 37.9495 11.8 38.4428 11.48C38.9495 11.1467 39.6961 10.98 40.6828 10.98ZM49.8023 10.98C51.0823 10.98 52.1157 11.1133 52.9023 11.38C53.689 11.6467 54.2623 12.14 54.6223 12.86C54.9957 13.5667 55.1823 14.5933 55.1823 15.94V20.82H52.2823L52.1823 19.9H52.1223C51.869 20.2333 51.4757 20.5 50.9423 20.7C50.409 20.9 49.7157 21 48.8623 21C46.5557 21 45.4023 19.92 45.4023 17.76C45.4023 16.84 45.7023 16.12 46.3023 15.6C46.9157 15.0667 47.8757 14.8 49.1823 14.8H52.1423C52.049 14.24 51.809 13.8667 51.4223 13.68C51.0357 13.48 50.3757 13.38 49.4423 13.38C48.8557 13.38 48.2757 13.4267 47.7023 13.52C47.1423 13.6 46.649 13.6933 46.2223 13.8L46.1623 13.76L46.1823 11.44C46.449 11.36 46.789 11.2867 47.2023 11.22C47.6157 11.14 48.049 11.08 48.5023 11.04C48.969 11 49.4023 10.98 49.8023 10.98ZM49.6823 18.64C50.509 18.64 51.129 18.54 51.5423 18.34C51.9557 18.1267 52.169 17.7933 52.1823 17.34V16.84H49.9223C49.3357 16.84 48.9223 16.9267 48.6823 17.1C48.4557 17.26 48.3423 17.48 48.3423 17.76C48.3423 18.0933 48.4623 18.3267 48.7023 18.46C48.9423 18.58 49.269 18.64 49.6823 18.64ZM65.3742 17.08C65.3742 16.64 65.3942 16.24 65.4342 15.88L65.3942 15.82C65.0209 15.8733 64.6142 15.9133 64.1742 15.94C63.7342 15.9533 63.3276 15.9533 62.9542 15.94V13.34L68.1742 13.32V20.12C67.5609 20.4 66.8609 20.62 66.0742 20.78C65.3009 20.9267 64.3142 21 63.1142 21C61.5142 21 60.2609 20.7867 59.3542 20.36C58.4476 19.92 57.8076 19.22 57.4342 18.26C57.0609 17.2867 56.8742 15.9933 56.8742 14.38C56.8742 13.0733 57.0209 12 57.3142 11.16C57.6209 10.32 58.0609 9.67333 58.6342 9.22C59.2209 8.75333 59.9342 8.43333 60.7742 8.26C61.6142 8.07333 62.5742 7.98 63.6542 7.98C64.2942 7.98 64.9342 8.00667 65.5742 8.06C66.2276 8.11333 66.8742 8.21333 67.5142 8.36V11L67.4542 11.04C66.8942 10.9067 66.3342 10.8133 65.7742 10.76C65.2276 10.7067 64.6742 10.68 64.1142 10.68C63.3009 10.68 62.5876 10.7667 61.9742 10.94C61.3742 11.1 60.9076 11.44 60.5742 11.96C60.2409 12.48 60.0742 13.2867 60.0742 14.38C60.0742 15.46 60.1609 16.2867 60.3342 16.86C60.5209 17.42 60.8609 17.8067 61.3542 18.02C61.8609 18.22 62.5809 18.32 63.5142 18.32C63.6342 18.32 63.8209 18.32 64.0742 18.32C64.3276 18.3067 64.5809 18.2933 64.8342 18.28C65.0876 18.2667 65.2676 18.2467 65.3742 18.22V17.08ZM78.9597 20.5C78.5864 20.6333 78.0664 20.7533 77.3997 20.86C76.7464 20.9533 75.9664 21 75.0597 21C73.913 21 72.933 20.8533 72.1197 20.56C71.3197 20.2533 70.713 19.74 70.2997 19.02C69.8864 18.2867 69.6797 17.2733 69.6797 15.98C69.6797 14.22 70.0797 12.9467 70.8797 12.16C71.693 11.3733 72.9464 10.98 74.6397 10.98C75.853 10.98 76.8064 11.1533 77.4997 11.5C78.2064 11.8467 78.7064 12.34 78.9997 12.98C79.3064 13.6067 79.4597 14.3533 79.4597 15.22C79.4597 15.4733 79.4464 15.7467 79.4197 16.04C79.4064 16.3333 79.373 16.62 79.3197 16.9L79.2397 16.98H72.6597C72.753 17.5667 73.0264 17.9533 73.4797 18.14C73.9464 18.3267 74.6997 18.42 75.7397 18.42C76.433 18.42 77.0064 18.4067 77.4597 18.38C77.9264 18.34 78.3997 18.2867 78.8797 18.22L78.9597 18.28V20.5ZM76.6797 14.88C76.6797 14.56 76.6264 14.2867 76.5197 14.06C76.4264 13.82 76.233 13.64 75.9397 13.52C75.6464 13.3867 75.213 13.32 74.6397 13.32C73.7997 13.32 73.2464 13.4667 72.9797 13.76C72.7264 14.04 72.5997 14.4133 72.5997 14.88H76.6797ZM84.3609 20.82H81.1609V11.08H84.2009L84.3609 12.86H84.4209C84.6076 12.26 84.9409 11.8 85.4209 11.48C85.9009 11.1467 86.5676 10.98 87.4209 10.98C88.5809 10.98 89.4343 11.3067 89.9809 11.96C90.5409 12.6133 90.8209 13.7467 90.8209 15.36V20.82H87.6209L87.6009 15.98C87.6009 15.2333 87.4876 14.7 87.2609 14.38C87.0343 14.06 86.6076 13.9 85.9809 13.9C85.3943 13.9 84.9809 14.0467 84.7409 14.34C84.5009 14.62 84.3743 15.1067 84.3609 15.8V20.82ZM96.3764 17.98C96.4031 18.2733 96.4231 18.5267 96.4364 18.74C96.4497 18.94 96.4564 19.1533 96.4564 19.38C96.4564 19.5933 96.4497 19.8133 96.4364 20.04C96.4231 20.2533 96.4031 20.5 96.3764 20.78C96.0431 20.8333 95.7097 20.88 95.3764 20.92C95.0431 20.96 94.7097 20.98 94.3764 20.98C94.0564 20.98 93.7364 20.96 93.4164 20.92C93.0964 20.88 92.7697 20.8333 92.4364 20.78C92.3964 20.5133 92.3697 20.2733 92.3564 20.06C92.3431 19.8333 92.3364 19.6133 92.3364 19.4C92.3364 19.2 92.3431 18.9867 92.3564 18.76C92.3697 18.5333 92.3964 18.2733 92.4364 17.98C93.1031 17.86 93.7631 17.8 94.4164 17.8C95.0697 17.8 95.7231 17.86 96.3764 17.98ZM109.773 20.76V20.82H106.373C106.279 20.5 106.166 20.1333 106.033 19.72C105.913 19.3067 105.779 18.8667 105.633 18.4H101.313C101.046 19.3333 100.799 20.14 100.573 20.82H97.1727V20.78L101.273 8.16H105.673L109.773 20.76ZM103.433 10.44C103.299 11.12 103.106 11.9467 102.853 12.92C102.599 13.8933 102.333 14.8867 102.053 15.9H104.913C104.619 14.8867 104.346 13.8933 104.093 12.92C103.839 11.9467 103.646 11.12 103.513 10.44H103.433ZM114.2 7.46C114.24 7.94 114.26 8.34 114.26 8.66C114.26 8.84667 114.254 9.04 114.24 9.24C114.24 9.42667 114.227 9.64 114.2 9.88C113.92 9.93333 113.647 9.97333 113.38 10C113.114 10.0267 112.847 10.04 112.58 10.04C112.327 10.04 112.067 10.0267 111.8 10C111.547 9.97333 111.287 9.93333 111.02 9.88C110.994 9.65333 110.974 9.44667 110.96 9.26C110.947 9.06 110.94 8.86667 110.94 8.68C110.94 8.50667 110.947 8.32 110.96 8.12C110.974 7.92 110.994 7.7 111.02 7.46C111.287 7.39333 111.554 7.35333 111.82 7.34C112.1 7.31333 112.374 7.3 112.64 7.3C112.894 7.3 113.147 7.31333 113.4 7.34C113.667 7.35333 113.934 7.39333 114.2 7.46ZM114.2 20.82H111V11.08H114.2V20.82Z" fill="white"/>
</svg>
