<svg width="160" height="32" viewBox="0 0 160 32" fill="none" xmlns="http://www.w3.org/2000/svg">
<g clip-path="url(#clip0_4371_9052)">
<rect width="32" height="32" rx="11.8064" fill="white"/>
<path d="M23.8491 -8.30176L0 20.8303L22.1887 34.5662" stroke="url(#paint0_linear_4371_9052)" stroke-width="0.301887"/>
<path d="M-4.07559 35.0183L31.7488 24.3754L-4.07562 -3.47236" stroke="url(#paint1_linear_4371_9052)" stroke-width="0.301887"/>
<path d="M11.4955 25.5641C11.6947 24.1332 11.903 22.6932 12.1204 21.2441C12.3558 19.795 12.5913 18.4003 12.8268 17.06C13.0804 15.7015 13.3158 14.4788 13.5332 13.392C13.7687 12.2147 14.0042 11.0192 14.2396 9.80561C14.4751 8.59203 14.7196 7.36939 14.9732 6.13769L19.7279 5.51278L18.3151 11.6532C18.0615 12.7218 17.7989 13.872 17.5272 15.1037C17.2736 16.3173 17.0381 17.4947 16.8208 18.6358C16.6034 19.7769 16.4313 20.7913 16.3045 21.6788C16.7574 21.6426 17.2374 21.6245 17.7445 21.6245C18.2698 21.6064 18.7317 21.5973 19.1302 21.5973C19.1483 22.0139 19.1845 22.4577 19.2389 22.9286C19.2932 23.3815 19.3475 23.78 19.4019 24.1241C19.4743 24.4501 19.5106 24.6313 19.5106 24.6675C19.4381 24.6675 19.3657 24.6675 19.2932 24.6675C19.2389 24.6675 19.1755 24.6584 19.103 24.6403H18.6683C17.9619 24.6403 17.174 24.6766 16.3045 24.749C15.4532 24.8034 14.6019 24.903 13.7506 25.0479C12.9174 25.1747 12.1657 25.3467 11.4955 25.5641Z" fill="#FCAF1B"/>
</g>
<path d="M54.4 20.1V22.82H45.2V10.16H48.4V20.1H54.4ZM59.0055 22.82H55.8055V9.36H59.0055V22.82ZM65.1109 12.98C66.3909 12.98 67.4243 13.1133 68.2109 13.38C68.9976 13.6467 69.5709 14.14 69.9309 14.86C70.3043 15.5667 70.4909 16.5933 70.4909 17.94V22.82H67.5909L67.4909 21.9H67.4309C67.1776 22.2333 66.7843 22.5 66.2509 22.7C65.7176 22.9 65.0243 23 64.1709 23C61.8643 23 60.7109 21.92 60.7109 19.76C60.7109 18.84 61.0109 18.12 61.6109 17.6C62.2243 17.0667 63.1843 16.8 64.4909 16.8H67.4509C67.3576 16.24 67.1176 15.8667 66.7309 15.68C66.3443 15.48 65.6843 15.38 64.7509 15.38C64.1643 15.38 63.5843 15.4267 63.0109 15.52C62.4509 15.6 61.9576 15.6933 61.5309 15.8L61.4709 15.76L61.4909 13.44C61.7576 13.36 62.0976 13.2867 62.5109 13.22C62.9243 13.14 63.3576 13.08 63.8109 13.04C64.2776 13 64.7109 12.98 65.1109 12.98ZM64.9909 20.64C65.8176 20.64 66.4376 20.54 66.8509 20.34C67.2643 20.1267 67.4776 19.7933 67.4909 19.34V18.84H65.2309C64.6443 18.84 64.2309 18.9267 63.9909 19.1C63.7643 19.26 63.6509 19.48 63.6509 19.76C63.6509 20.0933 63.7709 20.3267 64.0109 20.46C64.2509 20.58 64.5776 20.64 64.9909 20.64ZM84.6828 12.98C85.6695 12.98 86.4495 13.3067 87.0228 13.96C87.6095 14.6133 87.9028 15.7467 87.9028 17.36V22.82H84.7028L84.6828 17.76C84.6828 17.1067 84.5828 16.6333 84.3828 16.34C84.1961 16.0467 83.8228 15.9 83.2628 15.9C82.7028 15.9 82.3228 16.0467 82.1228 16.34C81.9361 16.6333 81.8428 17.1067 81.8428 17.76V22.82H78.6428L78.6228 17.76C78.6228 17.1067 78.5228 16.6333 78.3228 16.34C78.1361 16.0467 77.7628 15.9 77.2028 15.9C76.6428 15.9 76.2628 16.0467 76.0628 16.34C75.8761 16.6333 75.7828 17.1067 75.7828 17.76V22.82H72.5828V13.08H75.6228L75.7828 14.86H75.8428C76.0161 14.2733 76.3161 13.8133 76.7428 13.48C77.1828 13.1467 77.8028 12.98 78.6028 12.98C79.4028 12.98 80.0295 13.1467 80.4828 13.48C80.9495 13.8133 81.2495 14.2733 81.3828 14.86H81.4428C81.6161 14.26 81.9495 13.8 82.4428 13.48C82.9495 13.1467 83.6961 12.98 84.6828 12.98ZM93.8023 12.98C95.0823 12.98 96.1157 13.1133 96.9023 13.38C97.689 13.6467 98.2623 14.14 98.6223 14.86C98.9957 15.5667 99.1823 16.5933 99.1823 17.94V22.82H96.2823L96.1823 21.9H96.1223C95.869 22.2333 95.4757 22.5 94.9423 22.7C94.409 22.9 93.7157 23 92.8623 23C90.5557 23 89.4023 21.92 89.4023 19.76C89.4023 18.84 89.7023 18.12 90.3023 17.6C90.9157 17.0667 91.8757 16.8 93.1823 16.8H96.1423C96.049 16.24 95.809 15.8667 95.4223 15.68C95.0357 15.48 94.3757 15.38 93.4423 15.38C92.8557 15.38 92.2757 15.4267 91.7023 15.52C91.1423 15.6 90.649 15.6933 90.2223 15.8L90.1623 15.76L90.1823 13.44C90.449 13.36 90.789 13.2867 91.2023 13.22C91.6157 13.14 92.049 13.08 92.5023 13.04C92.969 13 93.4023 12.98 93.8023 12.98ZM93.6823 20.64C94.509 20.64 95.129 20.54 95.5423 20.34C95.9557 20.1267 96.169 19.7933 96.1823 19.34V18.84H93.9223C93.3357 18.84 92.9223 18.9267 92.6823 19.1C92.4557 19.26 92.3423 19.48 92.3423 19.76C92.3423 20.0933 92.4623 20.3267 92.7023 20.46C92.9423 20.58 93.269 20.64 93.6823 20.64ZM109.374 19.08C109.374 18.64 109.394 18.24 109.434 17.88L109.394 17.82C109.021 17.8733 108.614 17.9133 108.174 17.94C107.734 17.9533 107.328 17.9533 106.954 17.94V15.34L112.174 15.32V22.12C111.561 22.4 110.861 22.62 110.074 22.78C109.301 22.9267 108.314 23 107.114 23C105.514 23 104.261 22.7867 103.354 22.36C102.448 21.92 101.808 21.22 101.434 20.26C101.061 19.2867 100.874 17.9933 100.874 16.38C100.874 15.0733 101.021 14 101.314 13.16C101.621 12.32 102.061 11.6733 102.634 11.22C103.221 10.7533 103.934 10.4333 104.774 10.26C105.614 10.0733 106.574 9.98 107.654 9.98C108.294 9.98 108.934 10.0067 109.574 10.06C110.228 10.1133 110.874 10.2133 111.514 10.36V13L111.454 13.04C110.894 12.9067 110.334 12.8133 109.774 12.76C109.228 12.7067 108.674 12.68 108.114 12.68C107.301 12.68 106.588 12.7667 105.974 12.94C105.374 13.1 104.908 13.44 104.574 13.96C104.241 14.48 104.074 15.2867 104.074 16.38C104.074 17.46 104.161 18.2867 104.334 18.86C104.521 19.42 104.861 19.8067 105.354 20.02C105.861 20.22 106.581 20.32 107.514 20.32C107.634 20.32 107.821 20.32 108.074 20.32C108.328 20.3067 108.581 20.2933 108.834 20.28C109.088 20.2667 109.268 20.2467 109.374 20.22V19.08ZM122.96 22.5C122.586 22.6333 122.066 22.7533 121.4 22.86C120.746 22.9533 119.966 23 119.06 23C117.913 23 116.933 22.8533 116.12 22.56C115.32 22.2533 114.713 21.74 114.3 21.02C113.886 20.2867 113.68 19.2733 113.68 17.98C113.68 16.22 114.08 14.9467 114.88 14.16C115.693 13.3733 116.946 12.98 118.64 12.98C119.853 12.98 120.806 13.1533 121.5 13.5C122.206 13.8467 122.706 14.34 123 14.98C123.306 15.6067 123.46 16.3533 123.46 17.22C123.46 17.4733 123.446 17.7467 123.42 18.04C123.406 18.3333 123.373 18.62 123.32 18.9L123.24 18.98H116.66C116.753 19.5667 117.026 19.9533 117.48 20.14C117.946 20.3267 118.7 20.42 119.74 20.42C120.433 20.42 121.006 20.4067 121.46 20.38C121.926 20.34 122.4 20.2867 122.88 20.22L122.96 20.28V22.5ZM120.68 16.88C120.68 16.56 120.626 16.2867 120.52 16.06C120.426 15.82 120.233 15.64 119.94 15.52C119.646 15.3867 119.213 15.32 118.64 15.32C117.8 15.32 117.246 15.4667 116.98 15.76C116.726 16.04 116.6 16.4133 116.6 16.88H120.68ZM128.361 22.82H125.161V13.08H128.201L128.361 14.86H128.421C128.608 14.26 128.941 13.8 129.421 13.48C129.901 13.1467 130.568 12.98 131.421 12.98C132.581 12.98 133.434 13.3067 133.981 13.96C134.541 14.6133 134.821 15.7467 134.821 17.36V22.82H131.621L131.601 17.98C131.601 17.2333 131.488 16.7 131.261 16.38C131.034 16.06 130.608 15.9 129.981 15.9C129.394 15.9 128.981 16.0467 128.741 16.34C128.501 16.62 128.374 17.1067 128.361 17.8V22.82ZM140.376 19.98C140.403 20.2733 140.423 20.5267 140.436 20.74C140.45 20.94 140.456 21.1533 140.456 21.38C140.456 21.5933 140.45 21.8133 140.436 22.04C140.423 22.2533 140.403 22.5 140.376 22.78C140.043 22.8333 139.71 22.88 139.376 22.92C139.043 22.96 138.71 22.98 138.376 22.98C138.056 22.98 137.736 22.96 137.416 22.92C137.096 22.88 136.77 22.8333 136.436 22.78C136.396 22.5133 136.37 22.2733 136.356 22.06C136.343 21.8333 136.336 21.6133 136.336 21.4C136.336 21.2 136.343 20.9867 136.356 20.76C136.37 20.5333 136.396 20.2733 136.436 19.98C137.103 19.86 137.763 19.8 138.416 19.8C139.07 19.8 139.723 19.86 140.376 19.98ZM153.773 22.76V22.82H150.373C150.279 22.5 150.166 22.1333 150.033 21.72C149.913 21.3067 149.779 20.8667 149.633 20.4H145.313C145.046 21.3333 144.799 22.14 144.573 22.82H141.173V22.78L145.273 10.16H149.673L153.773 22.76ZM147.433 12.44C147.299 13.12 147.106 13.9467 146.853 14.92C146.599 15.8933 146.333 16.8867 146.053 17.9H148.913C148.619 16.8867 148.346 15.8933 148.093 14.92C147.839 13.9467 147.646 13.12 147.513 12.44H147.433ZM158.2 9.46C158.24 9.94 158.26 10.34 158.26 10.66C158.26 10.8467 158.254 11.04 158.24 11.24C158.24 11.4267 158.227 11.64 158.2 11.88C157.92 11.9333 157.647 11.9733 157.38 12C157.114 12.0267 156.847 12.04 156.58 12.04C156.327 12.04 156.067 12.0267 155.8 12C155.547 11.9733 155.287 11.9333 155.02 11.88C154.994 11.6533 154.974 11.4467 154.96 11.26C154.947 11.06 154.94 10.8667 154.94 10.68C154.94 10.5067 154.947 10.32 154.96 10.12C154.974 9.92 154.994 9.7 155.02 9.46C155.287 9.39333 155.554 9.35333 155.82 9.34C156.1 9.31333 156.374 9.3 156.64 9.3C156.894 9.3 157.147 9.31333 157.4 9.34C157.667 9.35333 157.934 9.39333 158.2 9.46ZM158.2 22.82H155V13.08H158.2V22.82Z" fill="white"/>
<defs>
<linearGradient id="paint0_linear_4371_9052" x1="13.5094" y1="-2.71685" x2="13.5094" y2="32.6039" gradientUnits="userSpaceOnUse">
<stop stop-color="#FFF5E2"/>
<stop offset="1" stop-color="#F1D49A" stop-opacity="0"/>
</linearGradient>
<linearGradient id="paint1_linear_4371_9052" x1="14.8706" y1="35.8767" x2="26.4718" y2="11.9692" gradientUnits="userSpaceOnUse">
<stop stop-color="#FFFDF9"/>
<stop offset="1" stop-color="#F1D49A" stop-opacity="0"/>
</linearGradient>
<clipPath id="clip0_4371_9052">
<rect width="32" height="32" rx="11.8064" fill="white"/>
</clipPath>
</defs>
</svg>
